<svg width="103" height="134" viewBox="0 0 103 134" fill="none" xmlns="http://www.w3.org/2000/svg">
<path d="M51.277 127.694C78.3786 127.694 100.349 107.863 100.349 83.4003C100.349 58.9376 78.3786 39.1066 51.277 39.1066C24.1755 39.1066 2.20535 58.9376 2.20535 83.4003C2.20535 107.863 24.1755 127.694 51.277 127.694Z" fill="#8FE3F9"/>
<path d="M51.277 127.694C78.3786 127.694 100.349 107.863 100.349 83.4003C100.349 58.9376 78.3786 39.1066 51.277 39.1066C24.1755 39.1066 2.20535 58.9376 2.20535 83.4003C2.20535 107.863 24.1755 127.694 51.277 127.694Z" fill="#8FE3F9"/>
<path d="M52.5684 126.833C63.7817 126.833 74.1125 123.54 82.3772 118.009L80.1174 112.693C75.3824 101.522 64.1476 94.2262 51.6859 94.2262C39.2243 94.2262 27.9895 101.522 23.2545 112.693L21.4035 117.083C29.8619 123.174 40.7309 126.833 52.5684 126.833Z" fill="#B2EBF9"/>
<path d="M51.2555 79.6984L41.8716 93.4729L48.9525 102.9C50.1147 104.449 52.4607 104.449 53.6229 102.9L60.6393 93.4729L51.2555 79.6984Z" fill="#A4E0EA"/>
<path d="M51.277 122.529C25.127 122.529 3.77651 104.084 2.29145 80.8176C2.22688 81.6785 2.20535 82.5394 2.20535 83.4003C2.20535 107.85 24.18 127.694 51.277 127.694C78.3741 127.694 100.349 107.872 100.349 83.4003C100.349 82.5394 100.327 81.6785 100.263 80.8176C98.7776 104.084 77.4055 122.529 51.277 122.529Z" fill="#7AD1E5"/>
<path d="M80.72 113.661C72.5198 119.214 62.3181 122.528 51.277 122.528C40.5156 122.528 30.5722 119.408 22.5012 114.113L21.425 116.76C29.9049 123.045 40.7524 126.833 52.5898 126.833C63.2866 126.833 73.187 123.734 81.258 118.482C81.6454 118.224 82.0113 117.944 82.3987 117.664L80.72 113.661Z" fill="#A4E0EA"/>
<path d="M1 83.551C2.37745 86.3704 4.2284 88.9962 6.55285 91.3422C17.8092 102.599 36.0819 102.599 47.3383 91.3422C56.7652 81.9153 58.2933 67.6027 51.9657 56.5831" fill="#7AD1E5"/>
<path d="M100.176 86.9085C95.011 94.6782 86.1867 99.779 76.1571 99.779C60.2303 99.779 47.3167 86.8655 47.3167 70.9387C47.3167 63.8362 49.8779 57.3364 54.1394 52.3" fill="#7AD1E5"/>
<path d="M51.277 127.694C78.3786 127.694 100.349 107.863 100.349 83.4003C100.349 58.9376 78.3786 39.1066 51.277 39.1066C24.1755 39.1066 2.20535 58.9376 2.20535 83.4003C2.20535 107.863 24.1755 127.694 51.277 127.694Z" stroke="#413D51" stroke-width="3.44363" stroke-miterlimit="10" stroke-linecap="round" stroke-linejoin="round"/>
<path d="M51.2555 73.6721L41.8716 87.4466L51.2985 99.9943L60.6609 87.4466L51.2555 73.6721Z" fill="#413D51"/>
<path d="M51.2555 73.6721L41.8716 87.4466L51.2985 99.9943L60.6609 87.4466L51.2555 73.6721Z" stroke="#413D51" stroke-width="3.44363" stroke-miterlimit="10" stroke-linecap="round" stroke-linejoin="round"/>
<path d="M72.5629 43.8847C66.1061 40.8716 58.7668 39.1713 51.0402 39.1713C43.3136 39.1713 35.9743 40.8716 29.5175 43.8847V74.038H72.5629V43.8847Z" fill="#413D51"/>
<path d="M75.3178 46.8979L98.713 46.1877C95.3339 54.6461 94.8819 67.366 97.8305 81.2696C94.0856 89.19 86.1222 94.8074 76.7598 95.0872C63.4588 95.4961 52.3316 85.0361 51.9442 71.7136C51.5353 58.4126 61.9953 47.3069 75.3178 46.8979Z" fill="#413D51"/>
<path d="M75.3178 46.8979L98.713 46.1877C95.3339 54.6461 94.8819 67.366 97.8305 81.2696C94.0856 89.19 86.1222 94.8074 76.7598 95.0872C63.4588 95.4961 52.3316 85.0361 51.9442 71.7136C51.5353 58.4126 61.9953 47.3069 75.3178 46.8979Z" stroke="#413D51" stroke-width="3.44363" stroke-miterlimit="10" stroke-linecap="round" stroke-linejoin="round"/>
<path d="M76.1572 95.0657C89.4702 95.0657 100.263 84.2733 100.263 70.9603C100.263 57.6473 89.4702 46.8549 76.1572 46.8549C62.8442 46.8549 52.0518 57.6473 52.0518 70.9603C52.0518 84.2733 62.8442 95.0657 76.1572 95.0657Z" fill="#F7E8AD"/>
<path d="M76.1572 95.0657C89.4702 95.0657 100.263 84.2733 100.263 70.9603C100.263 57.6473 89.4702 46.8549 76.1572 46.8549C62.8442 46.8549 52.0518 57.6473 52.0518 70.9603C52.0518 84.2733 62.8442 95.0657 76.1572 95.0657Z" fill="#F7E8AD"/>
<path d="M93.2031 53.9144C88.5757 49.287 82.5064 46.941 76.437 46.8549C80.9998 47.7373 85.3689 49.9327 88.8986 53.4839C98.304 62.8893 98.304 78.1489 88.8986 87.5758C84.1205 92.3538 77.8359 94.6998 71.5944 94.6352C79.1919 96.0988 87.3274 93.8819 93.2031 88.0063C102.609 78.5793 102.609 63.3198 93.2031 53.9144Z" fill="#F7D6A1"/>
<path opacity="0.7" d="M83.2857 83.8355C90.3459 76.7753 90.3051 65.2875 83.1944 58.1768C76.0837 51.0662 64.5959 51.0253 57.5357 58.0855C50.4755 65.1457 50.5163 76.6335 57.627 83.7442C64.7377 90.8549 76.2255 90.8957 83.2857 83.8355Z" fill="white"/>
<path d="M96.3885 59.5317C95.7213 58.6708 94.4299 56.3033 93.6336 55.507C84.1636 46.1661 68.904 46.2522 59.5632 55.7437C57.7122 57.6162 56.2272 59.7254 55.1295 61.9853C68.409 57.3149 82.9583 58.434 96.3885 59.5317Z" fill="#EFCA92"/>
<path d="M76.1572 95.0657C89.4702 95.0657 100.263 84.2733 100.263 70.9603C100.263 57.6473 89.4702 46.8549 76.1572 46.8549C62.8442 46.8549 52.0518 57.6473 52.0518 70.9603C52.0518 84.2733 62.8442 95.0657 76.1572 95.0657Z" stroke="#413D51" stroke-width="3.44363" stroke-miterlimit="10" stroke-linecap="round" stroke-linejoin="round"/>
<path d="M76.1572 95.0657C89.4702 95.0657 100.263 84.2733 100.263 70.9603C100.263 57.6473 89.4702 46.8549 76.1572 46.8549C62.8442 46.8549 52.0518 57.6473 52.0518 70.9603C52.0518 84.2733 62.8442 95.0657 76.1572 95.0657Z" stroke="#413D51" stroke-width="3.44363" stroke-miterlimit="10" stroke-linecap="round" stroke-linejoin="round"/>
<path d="M95.3769 56.411C94.7097 55.5501 93.9995 54.7107 93.2031 53.9143C83.7977 44.5089 68.5382 44.5089 59.1112 53.9143C57.2388 55.7868 55.7537 57.8745 54.6345 60.1129C67.9786 55.5501 81.9468 55.2057 95.3769 56.411Z" fill="#413D51"/>
<path d="M64.4274 81.8077C69.4198 81.8077 73.4669 77.7606 73.4669 72.7682C73.4669 67.7758 69.4198 63.7287 64.4274 63.7287C59.435 63.7287 55.3878 67.7758 55.3878 72.7682C55.3878 77.7606 59.435 81.8077 64.4274 81.8077Z" fill="#413D51"/>
<path d="M59.305 75.8459C60.9691 75.8459 62.3181 74.4969 62.3181 72.8328C62.3181 71.1686 60.9691 69.8196 59.305 69.8196C57.6408 69.8196 56.2918 71.1686 56.2918 72.8328C56.2918 74.4969 57.6408 75.8459 59.305 75.8459Z" fill="white"/>
<path d="M26.9565 46.8979L3.53979 46.1876C6.91885 54.646 7.37083 67.3659 4.42223 81.2696C8.16717 89.1899 16.1306 94.8073 25.4929 95.0871C38.7939 95.4961 49.9211 85.036 50.3085 71.7135C50.7175 58.4125 40.2575 47.3068 26.9565 46.8979Z" fill="#413D51"/>
<path d="M26.9565 46.8979L3.53979 46.1876C6.91885 54.646 7.37083 67.3659 4.42223 81.2696C8.16717 89.1899 16.1306 94.8073 25.4929 95.0871C38.7939 95.4961 49.9211 85.036 50.3085 71.7135C50.7175 58.4125 40.2575 47.3068 26.9565 46.8979Z" stroke="#413D51" stroke-width="3.44363" stroke-miterlimit="10" stroke-linecap="round" stroke-linejoin="round"/>
<path d="M26.0956 95.0656C39.4086 95.0656 50.2009 84.2733 50.2009 70.9602C50.2009 57.6472 39.4086 46.8549 26.0956 46.8549C12.7825 46.8549 1.99017 57.6472 1.99017 70.9602C1.99017 84.2733 12.7825 95.0656 26.0956 95.0656Z" fill="#F7E8AD"/>
<path d="M26.0956 95.0656C39.4086 95.0656 50.2009 84.2733 50.2009 70.9602C50.2009 57.6472 39.4086 46.8549 26.0956 46.8549C12.7825 46.8549 1.99017 57.6472 1.99017 70.9602C1.99017 84.2733 12.7825 95.0656 26.0956 95.0656Z" fill="#F7E8AD"/>
<path d="M9.04966 53.9143C13.677 49.2869 19.7464 46.9409 25.8158 46.8549C21.253 47.7373 16.8839 49.9326 13.3542 53.4838C3.94879 62.8892 3.94879 78.1488 13.3542 87.5757C18.1322 92.3538 24.4168 94.6997 30.6584 94.6352C23.0609 96.0987 14.9253 93.8819 9.04966 88.0062C-0.355746 78.5793 -0.355746 63.3197 9.04966 53.9143Z" fill="#F7D6A1"/>
<path opacity="0.7" d="M44.628 83.7485C51.7387 76.6379 51.7796 65.1501 44.7194 58.0898C37.6591 51.0296 26.1713 51.0705 19.0607 58.1812C11.95 65.2918 11.9091 76.7796 18.9694 83.8398C26.0296 90.9001 37.5174 90.8592 44.628 83.7485Z" fill="white"/>
<path opacity="0.89" d="M5.88577 59.5317C6.55298 58.6708 7.84434 56.3033 8.64068 55.507C18.1107 46.1661 33.3702 46.2522 42.7111 55.7437C44.562 57.6162 46.0471 59.7254 47.1447 61.9853C33.8437 57.3149 19.2944 58.434 5.88577 59.5317Z" fill="#EFCA92"/>
<path d="M26.0956 95.0656C39.4086 95.0656 50.2009 84.2733 50.2009 70.9602C50.2009 57.6472 39.4086 46.8549 26.0956 46.8549C12.7825 46.8549 1.99017 57.6472 1.99017 70.9602C1.99017 84.2733 12.7825 95.0656 26.0956 95.0656Z" stroke="#413D51" stroke-width="3.44363" stroke-miterlimit="10" stroke-linecap="round" stroke-linejoin="round"/>
<path d="M26.0956 95.0656C39.4086 95.0656 50.2009 84.2733 50.2009 70.9602C50.2009 57.6472 39.4086 46.8549 26.0956 46.8549C12.7825 46.8549 1.99017 57.6472 1.99017 70.9602C1.99017 84.2733 12.7825 95.0656 26.0956 95.0656Z" stroke="#413D51" stroke-width="3.44363" stroke-miterlimit="10" stroke-linecap="round" stroke-linejoin="round"/>
<path d="M6.8974 56.4109C7.5646 55.55 8.27485 54.7106 9.07119 53.9143C18.4766 44.5089 33.7362 44.5089 43.1631 53.9143C45.0356 55.7868 46.5206 57.8745 47.6398 60.1128C34.2958 55.55 20.306 55.2056 6.8974 56.4109Z" fill="#413D51"/>
<path d="M37.847 81.8077C42.8394 81.8077 46.8865 77.7605 46.8865 72.7682C46.8865 67.7758 42.8394 63.7286 37.847 63.7286C32.8546 63.7286 28.8075 67.7758 28.8075 72.7682C28.8075 77.7605 32.8546 81.8077 37.847 81.8077Z" fill="#413D51"/>
<path d="M42.9694 75.8459C44.6335 75.8459 45.9825 74.4968 45.9825 72.8327C45.9825 71.1686 44.6335 69.8195 42.9694 69.8195C41.3052 69.8195 39.9562 71.1686 39.9562 72.8327C39.9562 74.4968 41.3052 75.8459 42.9694 75.8459Z" fill="white"/>
<path d="M39.6763 133.075C37.7823 133.075 36.2327 131.525 36.2327 129.631V125.757C36.2327 123.863 37.7823 122.313 39.6763 122.313C41.5703 122.313 43.1199 123.863 43.1199 125.757V129.631C43.1199 131.525 41.5918 133.075 39.6763 133.075Z" fill="#413D51"/>
<path d="M32.789 133.075C30.895 133.075 29.3454 131.525 29.3454 129.631V125.757C29.3454 123.863 30.895 122.313 32.789 122.313C34.683 122.313 36.2326 123.863 36.2326 125.757V129.631C36.2326 131.525 34.7045 133.075 32.789 133.075Z" fill="#413D51"/>
<path d="M46.5205 133.075C44.6265 133.075 43.0768 131.525 43.0768 129.631V125.757C43.0768 123.863 44.6265 122.313 46.5205 122.313C48.4145 122.313 49.9641 123.863 49.9641 125.757V129.631C49.9641 131.525 48.4145 133.075 46.5205 133.075Z" fill="#413D51"/>
<path d="M55.603 133.075C53.709 133.075 52.1594 131.525 52.1594 129.631V125.757C52.1594 123.863 53.709 122.313 55.603 122.313C57.497 122.313 59.0467 123.863 59.0467 125.757V129.631C59.0467 131.525 57.497 133.075 55.603 133.075Z" fill="#413D51"/>
<path d="M62.4472 133.075C60.5532 133.075 59.0036 131.525 59.0036 129.631V125.757C59.0036 123.863 60.5532 122.313 62.4472 122.313C64.3412 122.313 65.8908 123.863 65.8908 125.757V129.631C65.8908 131.525 64.3412 133.075 62.4472 133.075Z" fill="#413D51"/>
<path d="M69.3345 133.075C67.4405 133.075 65.8908 131.525 65.8908 129.631V125.757C65.8908 123.863 67.4405 122.313 69.3345 122.313C71.2285 122.313 72.7781 123.863 72.7781 125.757V129.631C72.7781 131.525 71.2285 133.075 69.3345 133.075Z" fill="#413D51"/>
<path d="M49.1462 104.945C49.1462 106.752 47.6827 108.216 45.8748 108.216C44.0669 108.216 42.6033 106.752 42.6033 104.945" stroke="#413D51" stroke-width="1.72181" stroke-miterlimit="10" stroke-linecap="round" stroke-linejoin="round"/>
<path d="M59.1543 104.945C59.1543 106.752 57.6907 108.216 55.8828 108.216C54.0749 108.216 52.6114 106.752 52.6114 104.945" stroke="#413D51" stroke-width="1.72181" stroke-miterlimit="10" stroke-linecap="round" stroke-linejoin="round"/>
<path opacity="0.31" d="M12.7944 96.5937C12.3209 97.6052 11.1372 98.0572 10.1041 97.5837C9.07102 97.1102 8.64056 95.9265 9.11406 94.8934" stroke="#72C8D6" stroke-width="1.72181" stroke-miterlimit="10" stroke-linecap="round" stroke-linejoin="round"/>
<path opacity="0.31" d="M19.2081 99.9297C18.7346 100.941 17.5509 101.393 16.5178 100.92C15.5062 100.446 15.0543 99.2625 15.5278 98.2294" stroke="#72C8D6" stroke-width="1.72181" stroke-miterlimit="10" stroke-linecap="round" stroke-linejoin="round"/>
<path opacity="0.31" d="M15.4848 102.491C15.0113 103.503 13.8276 103.954 12.7945 103.481C11.7829 103.007 11.3309 101.824 11.8044 100.791" stroke="#72C8D6" stroke-width="1.72181" stroke-miterlimit="10" stroke-linecap="round" stroke-linejoin="round"/>
<path opacity="0.31" d="M21.1237 106.774C20.6502 107.785 19.4664 108.237 18.4334 107.764C17.4218 107.29 16.9698 106.107 17.4433 105.074" stroke="#72C8D6" stroke-width="1.72181" stroke-miterlimit="10" stroke-linecap="round" stroke-linejoin="round"/>
<path opacity="0.31" d="M25.4283 102.9C24.9548 103.911 23.771 104.363 22.7379 103.89C21.7264 103.416 21.2744 102.233 21.7479 101.2" stroke="#72C8D6" stroke-width="1.72181" stroke-miterlimit="10" stroke-linecap="round" stroke-linejoin="round"/>
<path opacity="0.31" d="M90.4267 97.0241C90.9002 98.0357 92.0839 98.4877 93.117 98.0142C94.1501 97.5407 94.5805 96.3569 94.107 95.3239" stroke="#72C8D6" stroke-width="1.72181" stroke-miterlimit="10" stroke-linecap="round" stroke-linejoin="round"/>
<path opacity="0.31" d="M84.0345 100.36C84.508 101.372 85.6917 101.824 86.7248 101.35C87.7364 100.877 88.1883 99.693 87.7148 98.6599" stroke="#72C8D6" stroke-width="1.72181" stroke-miterlimit="10" stroke-linecap="round" stroke-linejoin="round"/>
<path opacity="0.31" d="M87.7363 102.921C88.2098 103.933 89.3936 104.385 90.4267 103.911C91.4382 103.438 91.8902 102.254 91.4167 101.221" stroke="#72C8D6" stroke-width="1.72181" stroke-miterlimit="10" stroke-linecap="round" stroke-linejoin="round"/>
<path opacity="0.31" d="M82.1189 107.204C82.5924 108.216 83.7761 108.668 84.8092 108.194C85.8208 107.721 86.2728 106.537 85.7993 105.504" stroke="#72C8D6" stroke-width="1.72181" stroke-miterlimit="10" stroke-linecap="round" stroke-linejoin="round"/>
<path opacity="0.31" d="M77.8144 103.33C78.2879 104.342 79.4716 104.794 80.5047 104.32C81.5163 103.847 81.9682 102.663 81.4947 101.63" stroke="#72C8D6" stroke-width="1.72181" stroke-miterlimit="10" stroke-linecap="round" stroke-linejoin="round"/>
<path d="M44.1529 112.8C44.1529 114.608 42.6894 116.072 40.8815 116.072C39.0736 116.072 37.61 114.608 37.61 112.8" stroke="#413D51" stroke-width="1.72181" stroke-miterlimit="10" stroke-linecap="round" stroke-linejoin="round"/>
<path d="M54.161 112.8C54.161 114.608 52.6974 116.072 50.8895 116.072C49.0816 116.072 47.6181 114.608 47.6181 112.8" stroke="#413D51" stroke-width="1.72181" stroke-miterlimit="10" stroke-linecap="round" stroke-linejoin="round"/>
<path d="M64.169 112.8C64.169 114.608 62.7055 116.072 60.8976 116.072C59.0897 116.072 57.6261 114.608 57.6261 112.8" stroke="#413D51" stroke-width="1.72181" stroke-miterlimit="10" stroke-linecap="round" stroke-linejoin="round"/>
<rect x="34.5322" y="28.3882" width="33.3601" height="11.7184" fill="#B2EBF9"/>
<g clip-path="url(#clip0)">
<path d="M90.9216 0H14.3009V58.7569H90.9216V0Z" fill="white" fill-opacity="0.01"/>
<path d="M17.4934 21.2994L51.0504 11.017L84.6074 21.2994L51.0504 31.5819L17.4934 21.2994Z" fill="#7AD1E5" stroke="#2C2743" stroke-width="3.2284" stroke-linejoin="round"/>
<path d="M84.6073 21.4342V32.7243" stroke="#2C2743" stroke-width="2.15227" stroke-linecap="round" stroke-linejoin="round"/>
<path d="M32.7465 26.7165V41.946C32.7465 41.946 42.2804 38.9513 50.459 39.1163C58.6376 39.2814 69.3543 41.946 69.3543 41.946V26.7165" stroke="#2C2743" stroke-width="3.2284" stroke-linecap="round" stroke-linejoin="round"/>
</g>
<defs>
<clipPath id="clip0">
<rect width="76.6207" height="58.7569" fill="white" transform="translate(14.3009)"/>
</clipPath>
</defs>
</svg>
